# xmcd
#
# Track frame offsets:
#	150
#	10032
#	20296
#	29500
#	42507
#	53396
#	62951
#	73723
#	86268
#	97872
#	110389
#	122736
#	132959
#	144146
#	154095
#	164334
#	174779
#	183878
#
# Disc length: 2591 seconds
#
# Revision: 1
# Processed by: cddbd v1.5.2PL0 Copyright (c) Steve Scherf et al.
# Submitted via: audiograbber 1.83.01
#
DISCID=d80a1d12
DTITLE=Porter Wagoner - Blue Moon Of Kentucky
DYEAR=1971
DGENRE=Country
TTITLE0=Blue Moon Of Kentucky
TTITLE1=I'm Day Dreamin' Tonight
TTITLE2=Country Music Has Come To Town
TTITLE3=An Old Log Cabin For Sale
TTITLE4=I Wonder How The Old Folks Are At Home
TTITLE5=Little Cabin Home On The Hill
TTITLE6=Green, Green Grass Of Home
TTITLE7=Borne To Lose
TTITLE8=Ivory Tower
TTITLE9=A Satisfied Mind
TTITLE10=Company's Comin'
TTITLE11=Howdy Neightbor, Howdy
TTITLE12=Eat, Drink And Be Merry (Tomorrow You'll Cry)
TTITLE13=Heartbreak Affair
TTITLE14=Your Old Love Letters
TTITLE15=The Battle Of Little Big Horn
TTITLE16=The Man In The Little White Suite
TTITLE17=Bringing Home The Bacon
EXTD=
EXTT0=
EXTT1=
EXTT2=
EXTT3=
EXTT4=
EXTT5=
EXTT6=
EXTT7=
EXTT8=
EXTT9=
EXTT10=
EXTT11=
EXTT12=
EXTT13=
EXTT14=
EXTT15=
EXTT16=
EXTT17=
PLAYORDER=
